<svg width="117" height="28" viewBox="0 0 117 28" fill="none" xmlns="http://www.w3.org/2000/svg">
<path d="M37.373 21.5264C37.373 20.5492 37.571 19.7018 37.9668 18.9844C38.375 18.2669 38.9131 17.6546 39.5811 17.1475C40.249 16.6403 41.0098 16.2321 41.8633 15.9229C42.7168 15.6012 43.6012 15.3538 44.5166 15.1807C45.432 14.9951 46.335 14.8714 47.2256 14.8096C48.1162 14.7354 48.9326 14.6921 49.6748 14.6797V13.7334C49.6748 12.917 49.5697 12.2119 49.3594 11.6182C49.1491 11.0244 48.8522 10.5358 48.4688 10.1523C48.0853 9.75651 47.6214 9.46582 47.0771 9.28027C46.5452 9.08236 45.9577 8.9834 45.3145 8.9834C44.8691 8.9834 44.43 9.02051 43.9971 9.09473C43.5641 9.16895 43.1126 9.29264 42.6426 9.46582C42.1849 9.639 41.6963 9.87402 41.1768 10.1709C40.6696 10.4678 40.1191 10.8451 39.5254 11.3027L39.3398 11.1914L40.6016 8.5752C41.0098 8.38965 41.4118 8.24121 41.8076 8.12988C42.2035 8.00618 42.6055 7.90723 43.0137 7.83301C43.4219 7.75879 43.8363 7.70931 44.2568 7.68457C44.6898 7.64746 45.1413 7.62891 45.6113 7.62891C46.9102 7.62891 48.0173 7.78971 48.9326 8.11133C49.8604 8.42057 50.6149 8.85352 51.1963 9.41016C51.79 9.95443 52.223 10.5977 52.4951 11.3398C52.7673 12.0697 52.9033 12.8551 52.9033 13.6963V19.7451C52.9033 20.7965 52.9157 21.7181 52.9404 22.5098C52.9775 23.2891 53.0146 23.9632 53.0518 24.5322C53.1012 25.1012 53.1569 25.5775 53.2188 25.9609C53.293 26.3444 53.3672 26.666 53.4414 26.9258V27H49.3408V26.9258C49.4027 26.7279 49.446 26.5052 49.4707 26.2578C49.5078 26.0104 49.5387 25.7135 49.5635 25.3672C49.3037 25.5898 48.9945 25.8187 48.6357 26.0537C48.2894 26.2887 47.8874 26.5052 47.4297 26.7031C46.9844 26.8887 46.4834 27.0371 45.9268 27.1484C45.3825 27.2721 44.7826 27.334 44.127 27.334C41.9746 27.334 40.3109 26.833 39.1357 25.8311C37.9606 24.8167 37.373 23.3818 37.373 21.5264ZM49.6748 16.127C48.5492 16.1393 47.4668 16.2074 46.4277 16.3311C45.3887 16.4424 44.4671 16.6836 43.6631 17.0547C42.8714 17.4258 42.2344 17.9577 41.752 18.6504C41.2819 19.3307 41.0469 20.2399 41.0469 21.3779C41.0469 22.8376 41.4118 23.9508 42.1416 24.7178C42.8714 25.4847 43.8796 25.8682 45.166 25.8682C45.7598 25.8682 46.2979 25.7878 46.7803 25.627C47.2751 25.4538 47.708 25.2435 48.0791 24.9961C48.4626 24.7363 48.7842 24.458 49.0439 24.1611C49.3037 23.8519 49.5016 23.555 49.6377 23.2705C49.6624 22.8005 49.6748 22.2809 49.6748 21.7119C49.6748 21.1305 49.6748 20.4749 49.6748 19.7451V16.127ZM61.6426 20.5059C61.6426 22.1387 61.9642 23.3385 62.6074 24.1055C63.263 24.8724 64.1413 25.2559 65.2422 25.2559C65.638 25.2559 66.0833 25.1755 66.5781 25.0146C67.0729 24.8415 67.5801 24.6188 68.0996 24.3467C68.6315 24.0622 69.1572 23.7344 69.6768 23.3633C70.2087 22.9922 70.6973 22.5964 71.1426 22.1758C71.1673 21.8171 71.1797 21.4398 71.1797 21.0439C71.1797 20.6357 71.1797 20.2028 71.1797 19.7451V15.2549C71.1797 14.2035 71.1611 13.2881 71.124 12.5088C71.0993 11.7171 71.0622 11.0368 71.0127 10.4678C70.9756 9.89876 70.9199 9.42253 70.8457 9.03906C70.7839 8.6556 70.7158 8.33398 70.6416 8.07422V8H74.9277V8.07422C74.8535 8.33398 74.7855 8.6556 74.7236 9.03906C74.6618 9.42253 74.6061 9.89876 74.5566 10.4678C74.5072 11.0368 74.4701 11.7171 74.4453 12.5088C74.4206 13.2881 74.4082 14.2035 74.4082 15.2549V19.7451C74.4082 20.7965 74.4206 21.7181 74.4453 22.5098C74.4701 23.2891 74.5072 23.9632 74.5566 24.5322C74.6061 25.1012 74.6618 25.5775 74.7236 25.9609C74.7855 26.3444 74.8535 26.666 74.9277 26.9258V27H70.6416V26.9258C70.7158 26.6165 70.79 26.2207 70.8643 25.7383C70.9508 25.2559 71.0127 24.625 71.0498 23.8457C70.5426 24.2786 69.9922 24.7054 69.3984 25.126C68.8171 25.5465 68.2048 25.9238 67.5615 26.2578C66.9307 26.5918 66.2874 26.8577 65.6318 27.0557C64.9886 27.266 64.3516 27.3711 63.7207 27.3711C62.7559 27.3711 61.9333 27.2041 61.2529 26.8701C60.585 26.5361 60.0345 26.097 59.6016 25.5527C59.181 25.0085 58.8717 24.39 58.6738 23.6973C58.4883 23.0046 58.3955 22.2933 58.3955 21.5635V15.2549C58.3955 14.2035 58.3831 13.2881 58.3584 12.5088C58.3337 11.7171 58.2965 11.0368 58.2471 10.4678C58.1976 9.89876 58.1419 9.42253 58.0801 9.03906C58.0182 8.6556 57.9502 8.33398 57.876 8.07422V8H62.1621V8.07422C62.0879 8.33398 62.0199 8.6556 61.958 9.03906C61.8962 9.42253 61.8405 9.89876 61.791 10.4678C61.7415 11.0368 61.7044 11.7171 61.6797 12.5088C61.6549 13.2881 61.6426 14.2035 61.6426 15.2549V20.5059ZM86.5801 19.0215L82.127 24.6436C81.9661 24.8538 81.7992 25.0703 81.626 25.293C81.4652 25.5156 81.3167 25.7321 81.1807 25.9424C81.057 26.1527 80.9518 26.3506 80.8652 26.5361C80.791 26.7217 80.7539 26.8763 80.7539 27H77.6367V26.9258C77.8346 26.7526 78.1068 26.4928 78.4531 26.1465C78.8118 25.8001 79.1891 25.3734 79.585 24.8662L85.4297 17.4629L79.6963 9.70703C79.3747 9.28646 79.0592 8.92773 78.75 8.63086C78.4408 8.33398 78.2119 8.14844 78.0635 8.07422V8H83.1475C83.1475 8.21029 83.2217 8.54427 83.3701 9.00195C83.5309 9.44727 83.8402 9.98535 84.2979 10.6162L87.4521 14.9209L91.0518 10.3564C91.2002 10.1585 91.3486 9.94824 91.4971 9.72559C91.6579 9.50293 91.7939 9.28646 91.9053 9.07617C92.029 8.85352 92.1279 8.64941 92.2021 8.46387C92.2764 8.27832 92.3135 8.1237 92.3135 8H95.4307V8.07422C95.2575 8.21029 95.041 8.4082 94.7812 8.66797C94.5215 8.92773 94.1813 9.32357 93.7607 9.85547L88.584 16.4424L94.8184 24.8662C95.2389 25.4229 95.6286 25.8805 95.9873 26.2393C96.346 26.598 96.6058 26.8268 96.7666 26.9258V27H91.7012C91.7012 26.7897 91.6208 26.4557 91.46 25.998C91.2992 25.528 91.0023 24.9899 90.5693 24.3838L86.5801 19.0215ZM98.5293 21.5264C98.5293 20.5492 98.7272 19.7018 99.123 18.9844C99.5312 18.2669 100.069 17.6546 100.737 17.1475C101.405 16.6403 102.166 16.2321 103.02 15.9229C103.873 15.6012 104.757 15.3538 105.673 15.1807C106.588 14.9951 107.491 14.8714 108.382 14.8096C109.272 14.7354 110.089 14.6921 110.831 14.6797V13.7334C110.831 12.917 110.726 12.2119 110.516 11.6182C110.305 11.0244 110.008 10.5358 109.625 10.1523C109.242 9.75651 108.778 9.46582 108.233 9.28027C107.701 9.08236 107.114 8.9834 106.471 8.9834C106.025 8.9834 105.586 9.02051 105.153 9.09473C104.72 9.16895 104.269 9.29264 103.799 9.46582C103.341 9.639 102.853 9.87402 102.333 10.1709C101.826 10.4678 101.275 10.8451 100.682 11.3027L100.496 11.1914L101.758 8.5752C102.166 8.38965 102.568 8.24121 102.964 8.12988C103.36 8.00618 103.762 7.90723 104.17 7.83301C104.578 7.75879 104.993 7.70931 105.413 7.68457C105.846 7.64746 106.298 7.62891 106.768 7.62891C108.066 7.62891 109.174 7.78971 110.089 8.11133C111.017 8.42057 111.771 8.85352 112.353 9.41016C112.946 9.95443 113.379 10.5977 113.651 11.3398C113.924 12.0697 114.06 12.8551 114.06 13.6963V19.7451C114.06 20.7965 114.072 21.7181 114.097 22.5098C114.134 23.2891 114.171 23.9632 114.208 24.5322C114.257 25.1012 114.313 25.5775 114.375 25.9609C114.449 26.3444 114.523 26.666 114.598 26.9258V27H110.497V26.9258C110.559 26.7279 110.602 26.5052 110.627 26.2578C110.664 26.0104 110.695 25.7135 110.72 25.3672C110.46 25.5898 110.151 25.8187 109.792 26.0537C109.446 26.2887 109.044 26.5052 108.586 26.7031C108.141 26.8887 107.64 27.0371 107.083 27.1484C106.539 27.2721 105.939 27.334 105.283 27.334C103.131 27.334 101.467 26.833 100.292 25.8311C99.1169 24.8167 98.5293 23.3818 98.5293 21.5264ZM110.831 16.127C109.705 16.1393 108.623 16.2074 107.584 16.3311C106.545 16.4424 105.623 16.6836 104.819 17.0547C104.028 17.4258 103.391 17.9577 102.908 18.6504C102.438 19.3307 102.203 20.2399 102.203 21.3779C102.203 22.8376 102.568 23.9508 103.298 24.7178C104.028 25.4847 105.036 25.8682 106.322 25.8682C106.916 25.8682 107.454 25.7878 107.937 25.627C108.431 25.4538 108.864 25.2435 109.235 24.9961C109.619 24.7363 109.94 24.458 110.2 24.1611C110.46 23.8519 110.658 23.555 110.794 23.2705C110.819 22.8005 110.831 22.2809 110.831 21.7119C110.831 21.1305 110.831 20.4749 110.831 19.7451V16.127Z" fill="white"/>
<g clip-path="url(#clip0_2210_1033)">
<mask id="mask0_2210_1033" style="mask-type:luminance" maskUnits="userSpaceOnUse" x="0" y="2" width="32" height="26">
<path d="M17.7103 13.4336V26.2564C17.7103 27.2155 16.9419 28 16.0026 28C15.0632 28 14.2948 27.2155 14.2948 26.2564V13.4336C14.2948 12.4745 15.0632 11.6901 16.0026 11.6901C16.9394 11.6901 17.7103 12.4745 17.7103 13.4336ZM24.9113 9.80313C28.9649 10.7023 32 14.3875 32 18.7947C32 23.8769 27.9643 27.9974 22.9866 27.9974H21.044C20.1812 27.9974 19.4639 27.338 19.3516 26.4884H19.3363V26.2538V24.5102V17.1919C19.3363 16.2328 20.1047 15.4483 21.044 15.4483C21.9834 15.4483 22.7518 16.2328 22.7518 17.1919V24.5102H22.9866C26.0779 24.5102 28.582 21.9535 28.582 18.7973C28.582 16.1155 26.7492 13.7829 24.1838 13.2147L21.8864 12.7039L21.5316 10.3296C21.1155 7.54872 18.7569 5.48978 16 5.48978C13.2431 5.48978 10.8845 7.54872 10.4684 10.3296L10.1136 12.7039L7.81621 13.2147C5.2508 13.7855 3.418 16.1155 3.418 18.7973C3.418 21.9535 5.92214 24.5102 9.0134 24.5102H9.24825V17.1919C9.24825 16.2328 10.0166 15.4483 10.956 15.4483C11.8953 15.4483 12.6637 16.2328 12.6637 17.1919V24.5102V26.2538V26.4884H12.6484C12.5361 27.338 11.8162 27.9974 10.956 27.9974H9.0134C4.03574 28 0 23.8795 0 18.7973C0 14.3875 3.0351 10.7049 7.08871 9.80573C7.74984 5.38552 11.4869 2 16 2C20.5131 2 24.2502 5.38552 24.9113 9.80313Z" fill="white"/>
</mask>
<g mask="url(#mask0_2210_1033)">
<path d="M32 2H0V28H32V2Z" fill="#C4EF17"/>
</g>
<mask id="mask1_2210_1033" style="mask-type:luminance" maskUnits="userSpaceOnUse" x="0" y="2" width="32" height="20">
<path d="M17.289 21.4764C16.8627 21.4972 16.4339 21.5076 15.9999 21.5076C15.566 21.5076 15.1371 21.4972 14.7108 21.4764V13.4335C14.7108 12.7089 15.2928 12.1173 15.9999 12.1173C16.7095 12.1173 17.289 12.7115 17.289 13.4335V21.4764ZM22.333 20.7544V17.1917C22.333 16.4671 21.751 15.8755 21.0439 15.8755C20.3343 15.8755 19.7549 16.4697 19.7549 17.1917V21.2496C20.6381 21.1245 21.5009 20.9603 22.333 20.7544ZM3.06309 17.9058C3.42046 15.4116 5.25837 13.3448 7.72678 12.7949L9.74337 12.3467L10.0548 10.2643C10.5015 7.27227 13.0388 5.05956 15.9999 5.05956C18.9635 5.05956 21.4983 7.26967 21.945 10.2643L22.2565 12.3467L24.273 12.7949C26.744 13.3422 28.5794 15.4116 28.9367 17.9058C29.7638 17.3454 30.5092 16.7304 31.155 16.0736C30.2284 13.1754 27.857 10.8976 24.8193 10.2226L24.5385 10.16L24.4951 9.8681C23.857 5.59124 20.2373 2.42725 15.9974 2.42725C11.76 2.42725 8.14286 5.59385 7.5047 9.8681L7.4613 10.16L7.18051 10.2226C4.14031 10.8976 1.77145 13.1754 0.842285 16.0736C1.49066 16.733 2.23603 17.3454 3.06309 17.9058ZM12.2475 21.2496V17.1917C12.2475 16.4671 11.6655 15.8755 10.9584 15.8755C10.2488 15.8755 9.66934 16.4697 9.66934 17.1917V20.7544C10.5015 20.9603 11.3617 21.1245 12.2475 21.2496Z" fill="white"/>
</mask>
<g mask="url(#mask1_2210_1033)">
<path d="M31.1575 2.42725H0.842285V21.5076H31.1575V2.42725Z" fill="#C4EF17"/>
</g>
</g>
<defs>
<clipPath id="clip0_2210_1033">
<rect width="32" height="26" fill="white" transform="translate(0 2)"/>
</clipPath>
</defs>
</svg>
